<?xml version="1.0" encoding="utf-8"?>
<!-- Generator: Adobe Illustrator 18.1.0, SVG Export Plug-In . SVG Version: 6.00 Build 0)  -->
<svg version="1.1" id="Layer_1" xmlns="http://www.w3.org/2000/svg" xmlns:xlink="http://www.w3.org/1999/xlink" x="0px" y="0px"
	 viewBox="0 0 1552.15698 317.21521" enable-background="new 0 0 1552.15698 317.21521" xml:space="preserve">
<rect x="31.16599" y="81.00002" fill="#177289" width="28.18337" height="28.18337"/>
<rect x="107.82155" y="158.50774" fill="#1EBDE6" width="62.17746" height="152.62453"/>
<rect x="136.42183" y="160.15717" fill="#06A7C1" width="9.44864" height="149.14915"/>
<rect x="154.44017" y="158.50774" fill="#06A7C1" width="16.48018" height="150.99852"/>
<rect x="53.58144" y="160.15717" fill="#1B9DBD" width="58.01023" height="149.14915"/>
<rect x="30.28946" y="158.50774" fill="#177289" width="23.29199" height="150.79858"/>
<g>
	<path fill="#15515D" d="M168.28351,160.15718v147.77693H30.28946V160.15718H168.28351 M168.28351,155.15718H30.28946
		c-2.76144,0-5,2.23856-5,5v147.77693c0,2.76144,2.23856,5,5,5h137.99405c2.76144,0,5-2.23856,5-5V160.15718
		C173.28351,157.39574,171.04495,155.15718,168.28351,155.15718L168.28351,155.15718z"/>
</g>
<rect x="60.22375" y="160.15717" fill="#177289" width="6.34019" height="147.77696"/>
<g>
	<path fill="#1EBDE6" d="M205.85623,224.37538V211.5414l62.30664-38.19141l7.65918,13.45508l-52.78516,31.15332l52.78516,31.1543
		l-7.65918,13.45506L205.85623,224.37538z"/>
	<path fill="#1EBDE6" d="M343.19315,135.46962c3.30859,10.33398,6.58203,20.78076,9.82227,31.3374
		c3.24121,10.55762,6.41113,21.63477,9.5127,33.22656c3.10156,11.59277,6.20312,23.87695,9.30566,36.84961
		c3.10156,12.97266,6.21973,26.98436,9.35059,42.03709H362.5535c-1.07324-6.2168-2.18945-12.3584-3.34668-18.42969
		c-1.1582-6.06737-2.35156-12.13866-3.57422-18.20897h-45.25879c-1.38477,6.07031-2.63281,12.1416-3.73926,18.21288
		c-1.10547,6.07031-2.20215,12.21289-3.28223,18.42578h-18.00977c3.04688-15.03613,6.16211-29.03807,9.34766-42.0078
		c3.18262-12.96973,6.33301-25.24805,9.45117-36.83691c3.11426-11.58887,6.2998-22.65918,9.55371-33.2168
		c3.25391-10.55371,6.5498-21.01611,9.8877-31.38916H343.19315z M333.05643,156.58339
		c-3.35742,11.49512-6.63086,23.02832-9.81348,34.60742c-3.18555,11.5791-6.23242,23.43652-9.13965,35.56543h37.57324
		c-2.75195-12.13867-5.71191-24.00195-8.875-35.59082S336.38748,168.04921,333.05643,156.58339z"/>
	<path fill="#1EBDE6" d="M418.44119,266.0863c7.45117,0,13.21191-2.07031,17.28418-6.20996
		c4.06836-4.13963,6.10645-9.72948,6.10645-16.76659c0-3.72656-0.62109-7.03809-1.86328-9.93652
		c-1.24219-2.89746-2.86523-5.51758-4.86426-7.86621c-2.00195-2.34473-4.31445-4.48242-6.93457-6.41699
		c-2.62305-1.93066-5.31445-3.86133-8.07324-5.7959c-3.17578-2.20605-6.48828-4.55371-9.93555-7.03809
		c-3.45117-2.4834-6.5918-5.38184-9.41895-8.69336c-2.83008-3.3125-5.14258-7.17383-6.93457-11.59277
		c-1.79492-4.41406-2.69043-9.58984-2.69043-15.52441c0-5.7959,0.99902-11.03906,3.00098-15.73242
		c1.99902-4.68896,4.76172-8.69287,8.28027-12.00537c3.51855-3.31201,7.72656-5.86377,12.62695-7.65869
		c4.89648-1.79199,10.17578-2.69141,15.83594-2.69141c5.51758,0,10.625,0.69238,15.31738,2.07031
		c4.69043,1.38086,8.62305,3.03711,11.79883,4.96777l-5.7959,14.69629c-2.89746-1.93066-6.03809-3.41455-9.41797-4.44971
		c-3.38379-1.03516-6.93457-1.55273-10.66113-1.55273c-6.7627,0-12.18066,1.83105-16.24902,5.48486
		c-4.07227,3.6582-6.10645,9.00488-6.10645,16.04297c0,3.86523,0.65332,7.24512,1.9668,10.14258
		c1.30957,2.89844,3.0332,5.52148,5.1748,7.86621c2.1377,2.34863,4.62207,4.48633,7.45215,6.41699
		c2.82617,1.93457,5.82812,3.93359,9.00391,6.00293c3.17285,2.07031,6.41699,4.34766,9.72949,6.83105
		c3.31152,2.48438,6.31348,5.34961,9.00391,8.59082c2.69141,3.24414,4.89746,7.03809,6.62402,11.38477
		c1.72461,4.34668,2.58789,9.48926,2.58789,15.42188c0,5.38184-0.82812,10.48926-2.48438,15.31737
		c-1.65527,4.83203-4.24316,9.07617-7.76172,12.73047c-3.51953,3.6582-7.9375,6.55664-13.24805,8.69434
		c-5.31445,2.1377-11.56055,3.20898-18.73438,3.20898c-6.62402,0-12.41992-0.76074-17.3877-2.27734
		s-9.38574-3.51953-13.24805-6.00293l5.7959-14.9043c3.58691,2.20898,7.27734,3.96875,11.0752,5.27832
		C409.09061,265.43298,413.47244,266.0863,418.44119,266.0863z"/>
	<path fill="#1EBDE6" d="M497.10037,266.0863c7.45117,0,13.21191-2.07031,17.28415-6.20996
		c4.06836-4.13963,6.10645-9.72948,6.10645-16.76659c0-3.72656-0.62109-7.03809-1.86328-9.93652
		c-1.24219-2.89746-2.86523-5.51758-4.86426-7.86621c-2.00192-2.34473-4.31442-4.48242-6.93454-6.41699
		c-2.62305-1.93066-5.31445-3.86133-8.07324-5.7959c-3.17578-2.20605-6.48828-4.55371-9.93555-7.03809
		c-3.45117-2.4834-6.5918-5.38184-9.41895-8.69336c-2.83008-3.3125-5.14258-7.17383-6.93457-11.59277
		c-1.79492-4.41406-2.69043-9.58984-2.69043-15.52441c0-5.7959,0.99902-11.03906,3.00098-15.73242
		c1.99902-4.68896,4.76172-8.69287,8.28027-12.00537c3.51855-3.31201,7.72656-5.86377,12.62695-7.65869
		c4.89648-1.79199,10.17578-2.69141,15.83594-2.69141c5.51755,0,10.62497,0.69238,15.31735,2.07031
		c4.69043,1.38086,8.62305,3.03711,11.79883,4.96777l-5.7959,14.69629c-2.89746-1.93066-6.03809-3.41455-9.41797-4.44971
		c-3.38379-1.03516-6.93457-1.55273-10.6611-1.55273c-6.7627,0-12.18066,1.83105-16.24902,5.48486
		c-4.07227,3.6582-6.10645,9.00488-6.10645,16.04297c0,3.86523,0.65332,7.24512,1.9668,10.14258
		c1.30957,2.89844,3.0332,5.52148,5.1748,7.86621c2.1377,2.34863,4.62207,4.48633,7.45215,6.41699
		c2.82617,1.93457,5.82812,3.93359,9.00388,6.00293c3.17285,2.07031,6.41699,4.34766,9.72949,6.83105
		c3.31152,2.48438,6.31348,5.34961,9.00391,8.59082c2.69141,3.24414,4.89746,7.03809,6.62402,11.38477
		c1.72461,4.34668,2.58789,9.48926,2.58789,15.42188c0,5.38184-0.82812,10.48926-2.48438,15.31737
		c-1.65527,4.83203-4.24316,9.07617-7.76172,12.73047c-3.51953,3.6582-7.9375,6.55664-13.24805,8.69434
		c-5.31442,2.1377-11.56052,3.20898-18.73434,3.20898c-6.62402,0-12.41992-0.76074-17.3877-2.27734
		s-9.38574-3.51953-13.24805-6.00293l5.7959-14.9043c3.58691,2.20898,7.27734,3.96875,11.0752,5.27832
		C487.74979,265.43298,492.13162,266.0863,497.10037,266.0863z"/>
	<path fill="#1EBDE6" d="M557.95679,278.92029V135.46962h64.37695v15.93896h-45.74707v44.50488h41.40039v15.52441h-41.40039
		v51.54295h49.05957v15.93945H557.95679z"/>
	<path fill="#1EBDE6" d="M716.10327,135.46962v15.93896h-31.87793v127.5117h-18.62988v-127.5117h-31.87793v-15.93896H716.10327z"/>
	<path fill="#1EBDE6" d="M768.47046,137.53993c9.6582-2.34521,19.1123-3.51904,28.35938-3.51904
		c7.17383,0,13.69434,0.86328,19.56152,2.5874c5.86426,1.72705,10.89941,4.41797,15.11133,8.07324
		c4.20703,3.6582,7.45117,8.38232,9.72852,14.1792c2.27734,5.7959,3.41602,12.76562,3.41602,20.90625
		c0,8.28027-1.1748,15.35352-3.51953,21.21777c-2.34766,5.86719-5.66016,10.62793-9.93555,14.2832
		c-4.2793,3.6582-9.41895,6.31348-15.42188,7.96973c-6.00293,1.65527-12.66211,2.4834-19.97559,2.4834h-8.69434v53.1992h-18.62988
		V137.53993z M787.10034,209.36855h7.45215c4.69043,0,8.93359-0.51758,12.73047-1.55273
		c3.79395-1.03516,7.00293-2.72363,9.62598-5.07129c2.62012-2.34473,4.62207-5.38184,6.00293-9.1084
		c1.37793-3.72559,2.07031-8.34766,2.07031-13.86914c0-5.51758-0.69238-10.1748-2.07031-13.97266
		c-1.38086-3.79297-3.2793-6.83008-5.69238-9.10742c-2.41602-2.27734-5.34961-3.89746-8.79785-4.86426
		c-3.45117-0.96387-7.24512-1.44873-11.38477-1.44873c-3.58984,0-6.90234,0.20703-9.93652,0.62061V209.36855z"/>
	<path fill="#1EBDE6" d="M864.72241,135.46962h18.62988v143.45067h-18.62988V135.46962z"/>
	<path fill="#1EBDE6" d="M913.98804,137.53993c9.6582-2.34521,19.1123-3.51904,28.35938-3.51904
		c7.17383,0,13.69434,0.86328,19.56152,2.5874c5.86426,1.72705,10.89941,4.41797,15.11133,8.07324
		c4.20703,3.6582,7.45117,8.38232,9.72852,14.1792c2.27734,5.7959,3.41602,12.76562,3.41602,20.90625
		c0,8.28027-1.1748,15.35352-3.51953,21.21777c-2.34766,5.86719-5.66016,10.62793-9.93555,14.2832
		c-4.2793,3.6582-9.41895,6.31348-15.42188,7.96973c-6.00293,1.65527-12.66211,2.4834-19.97559,2.4834h-8.69434v53.1992h-18.62988
		V137.53993z M932.61792,209.36855h7.45215c4.69043,0,8.93359-0.51758,12.73047-1.55273
		c3.79395-1.03516,7.00293-2.72363,9.62598-5.07129c2.62012-2.34473,4.62207-5.38184,6.00293-9.1084
		c1.37793-3.72559,2.07031-8.34766,2.07031-13.86914c0-5.51758-0.69238-10.1748-2.07031-13.97266
		c-1.38086-3.79297-3.2793-6.83008-5.69238-9.10742c-2.41602-2.27734-5.34961-3.89746-8.79785-4.86426
		c-3.45117-0.96387-7.24512-1.44873-11.38477-1.44873c-3.58984,0-6.90234,0.20703-9.93652,0.62061V209.36855z"/>
	<path fill="#1EBDE6" d="M1010.23901,278.92029V135.46962h64.37695v15.93896h-45.74707v44.50488h41.40039v15.52441h-41.40039
		v51.54295h49.05957v15.93945H1010.23901z"/>
	<path fill="#1EBDE6" d="M1164.45288,262.98083v15.93945h-63.96289V135.46962h18.62988v127.51122H1164.45288z"/>
	<path fill="#1EBDE6" d="M1182.66772,135.46962h18.62988v143.45067h-18.62988V135.46962z"/>
	<path fill="#1EBDE6" d="M1302.31226,278.92029c-3.31152-8.14062-7.07324-16.93848-11.28125-26.39256
		c-4.21094-9.45117-8.62598-18.97266-13.24805-28.56641c-4.625-9.58984-9.35059-19.11133-14.17969-28.56543
		c-4.83203-9.45117-9.59277-18.24805-14.28223-26.39258v109.91698h-17.38867V135.46962h15.51855
		c5.24316,8.55859,10.31445,17.31982,15.21484,26.28857c4.90039,8.97266,9.55762,17.83789,13.97559,26.59961
		c4.41504,8.76562,8.59082,17.3877,12.52344,25.875c3.93359,8.4873,7.55859,16.52734,10.87109,24.11523V135.46962h17.3877v143.45067
		H1302.31226z"/>
	<path fill="#1EBDE6" d="M1348.05835,278.92029V135.46962h64.37695v15.93896h-45.74707v44.50488h41.40039v15.52441h-41.40039
		v51.54295h49.05957v15.93945H1348.05835z"/>
	<path fill="#1EBDE6" d="M1432.09644,317.21521h-16.55664l50.09375-200.37547h16.56055L1432.09644,317.21521z"/>
	<path fill="#1EBDE6" d="M1489.84937,262.56775l-7.6582-13.45506l52.78418-31.1543l-52.78418-31.15332l7.6582-13.45508
		l62.30762,38.19141v12.83398L1489.84937,262.56775z"/>
</g>
<rect x="120.18242" y="104.66544" fill="#1EBDE6" width="69.92538" height="68.52243"/>
<rect x="145.63124" y="105.77997" fill="#06A7C1" width="8.08665" height="66.03288"/>
<rect x="167.6449" y="104.43627" fill="#06A7C1" width="23.58606" height="67.37657"/>
<rect x="32.23826" y="105.77997" fill="#1B9DBD" width="93.44511" height="66.03288"/>
<g>
	<path fill="#15515D" d="M188.48099,105.77999v66.03286H8.15819v-66.03286H188.48099 M188.48099,100.77998H8.15819
		c-2.76143,0-5,2.23857-5,5.00001v66.03286c0,2.76143,2.23857,5,5,5h180.3228c2.76141,0,5-2.23857,5-5v-66.03286
		C193.48099,103.01855,191.2424,100.77998,188.48099,100.77998L188.48099,100.77998z"/>
</g>
<rect x="8.15819" y="105.77997" fill="#177289" width="24.08007" height="66.03288"/>
<rect x="42.59334" y="105.77997" fill="#177289" width="5.32867" height="66.03288"/>
<rect x="133.46666" y="72.85928" fill="#1EBDE6" width="28.18337" height="28.18337"/>
<rect x="97.49999" y="42.00002" fill="#1B9CBD" width="28.18337" height="28.18337"/>
<rect x="0" y="36.50002" fill="#06A7C1" width="28.18337" height="28.18337"/>
<rect x="55.94135" y="22.40833" fill="#1EBDE6" width="28.18337" height="28.18337"/>
<rect x="165.34624" y="36.50001" fill="#177289" width="28.18337" height="28.18337"/>
<rect x="127.05447" y="0.00001" fill="#1B9CBD" width="28.18337" height="28.18337"/>
</svg>
