<?xml version="1.0" encoding="utf-8"?>
<!-- Generator: Adobe Illustrator 18.1.1, SVG Export Plug-In . SVG Version: 6.00 Build 0)  -->
<svg version="1.1" id="Layer_1" xmlns="http://www.w3.org/2000/svg" xmlns:xlink="http://www.w3.org/1999/xlink" x="0px" y="0px"
	 viewBox="0 0 140 140" enable-background="new 0 0 140 140" xml:space="preserve">
<rect x="40.7" y="36.5" opacity="0.42" fill="#FFFFFF" width="12.6" height="8.8"/>
<rect x="74.9" y="79.3" fill="#FFFFFF" width="12.8" height="58.8"/>
<rect x="87.7" y="79.3" opacity="0.7" fill="#FFFFFF" width="4.2" height="59.2"/>
<rect x="95.8" y="79.3" opacity="0.7" fill="#FFFFFF" width="6.2" height="58.9"/>
<rect x="56.5" y="79.3" opacity="0.7" fill="#FFFFFF" width="20.1" height="58.9"/>
<rect x="40.3" y="79.3" opacity="0.42" fill="#FFFFFF" width="10.4" height="59.2"/>
<g opacity="0.35">
	<path d="M102,84 M102,79.3v58.8H40.3V79.3 M38,79.3v58.8c0,1,1,1.8,2.2,1.8H102c1.2,0,2.2-0.8,2.2-1.8V79.3"/>
</g>
<rect x="53.6" y="79.3" opacity="0.42" fill="#FFFFFF" width="2.8" height="58.6"/>
<rect x="80.5" y="47.6" fill="#FFFFFF" width="11.4" height="29.5"/>
<rect x="91.8" y="47.6" opacity="0.7" fill="#FFFFFF" width="3.6" height="29.5"/>
<rect x="101.7" y="47.6" opacity="0.7" fill="#FFFFFF" width="9.3" height="29.5"/>
<rect x="41.1" y="47.6" opacity="0.7" fill="#FFFFFF" width="41.8" height="29.5"/>
<g opacity="0.35">
	<path d="M111,47.6v29.5H30.4V47.6L111,47.6 M111,45.3H30.4c-1.2,0-2.2,1-2.2,2.2v29.5c0,1.2,1,2.2,2.2,2.2H111c1.2,0,2.2-1,2.2-2.2
		V47.6C113.2,46.3,112.2,45.3,111,45.3L111,45.3z"/>
</g>
<rect x="30.4" y="47.6" opacity="0.42" fill="#FFFFFF" width="10.8" height="29.5"/>
<rect x="45.8" y="47.6" opacity="0.42" fill="#FFFFFF" width="2.4" height="29.5"/>
<rect x="86.4" y="32.8" fill="#FFFFFF" width="12.6" height="12.6"/>
<rect x="70.3" y="19" opacity="0.7" fill="#FFFFFF" width="12.6" height="12.6"/>
<rect x="26.7" y="16.6" opacity="0.7" fill="#FFFFFF" width="12.6" height="12.6"/>
<rect x="51.7" y="10.3" fill="#FFFFFF" width="12.6" height="12.6"/>
<rect x="100.7" y="16.6" opacity="0.42" fill="#FFFFFF" width="12.6" height="12.6"/>
<rect x="83.5" y="0.3" opacity="0.7" fill="#FFFFFF" width="12.6" height="12.6"/>
<rect x="91.8" y="79.3" fill="#FFFFFF" width="3.9" height="58.8"/>
<rect x="49.4" y="79.3" opacity="0.7" fill="#FFFFFF" width="4.3" height="58.8"/>
<rect x="95" y="47.6" fill="#FFFFFF" width="6.7" height="29.5"/>
</svg>
